<svg width="638" height="260" viewBox="0 0 638 260" fill="none" xmlns="http://www.w3.org/2000/svg">
<path d="M563.334 0H626.364L468.788 260H405.758L563.334 0Z" fill="#FFACAC"/>
<path d="M374.242 0H437.273L279.697 260H216.667L374.242 0Z" fill="#FFACAC"/>
<path d="M94.5455 102.424H157.576L63.0303 260H0L94.5455 102.424Z" fill="#FFACAC"/>
<path d="M49.5142 204.849H311.212L279.697 260H0L49.5142 204.849Z" fill="#FFACAC"/>
<path d="M130 0H338.788L303.333 55.1515H98.4849L130 0Z" fill="#FFACAC"/>
<path d="M46.3027 102H243.272L211.757 157.152H14.7881L46.3027 102Z" fill="#FFACAC"/>
<path d="M243.272 102H440.242L408.727 157.152H211.758L243.272 102Z" fill="#FFACAC"/>
<path d="M440.242 102H637.212L605.697 157.152H408.728L440.242 102Z" fill="#FFACAC"/>
</svg>
