<svg width="49" height="49" viewBox="0 0 49 49" fill="none" xmlns="http://www.w3.org/2000/svg">
<circle cx="24.5" cy="24.5" r="23" stroke="#FDFDFD" stroke-width="3"/>
<path d="M30.4918 40.0825L19.3929 37.1085C18.7261 36.9299 18.3303 36.2444 18.509 35.5776L19.156 33.1628C19.3346 32.496 20.0201 32.1002 20.6869 32.2789L28.1637 34.2823L32.4548 18.2679C32.6335 17.6011 33.3189 17.2053 33.9857 17.384L36.4005 18.0311C37.0673 18.2097 37.463 18.8951 37.2844 19.562L32.0228 39.1986C31.8441 39.8655 31.1587 40.2612 30.4918 40.0825Z" fill="#FDFDFD"/>
<path d="M21.4918 28.0825L10.3929 25.1085C9.72607 24.9299 9.33034 24.2444 9.50899 23.5776L10.156 21.1628C10.3346 20.496 11.0201 20.1002 11.6869 20.2789L19.1637 22.2823L23.4548 6.26786C23.6335 5.60106 24.3189 5.20531 24.9857 5.38398L27.4005 6.03105C28.0673 6.20972 28.463 6.89514 28.2844 7.56199L23.0228 27.1986C22.8441 27.8655 22.1587 28.2612 21.4918 28.0825Z" fill="#FDFDFD"/>
</svg>
