<svg width="130" height="130" viewBox="0 0 130 130" fill="none" xmlns="http://www.w3.org/2000/svg">
<rect width="130" height="130" fill="#3EAF0E"/>
<path d="M15.5497 64.5192L33.1183 47.7314C34.3907 46.5155 36.5 47.4174 36.5 49.1774V81.9721C36.5 83.7095 34.4373 84.6206 33.153 83.4505L15.5844 67.4436C14.7277 66.663 14.7117 65.3199 15.5497 64.5192Z" fill="#EFEFEF"/>
<path d="M85.1176 92.1176L67.4302 74.4302C66.6429 73.6429 65.3643 73.6501 64.586 74.4462L45.3994 94.0688C44.6267 94.8591 44.6415 96.1262 45.4323 96.8982L63.5535 114.588C64.3499 115.365 65.6277 115.343 66.3965 114.538L85.1493 94.9135C85.9002 94.1277 85.8861 92.8861 85.1176 92.1176Z" fill="#EFEFEF"/>
<path d="M87.5055 39.4594L49.8463 76.2324C48.5871 77.462 46.4683 76.583 46.4492 74.8232L46.0091 34.3411C46.0033 33.8032 46.2144 33.2856 46.5948 32.9052L63.1297 16.3703C63.8934 15.6066 65.1254 15.5871 65.9128 16.3263L87.477 36.5703C88.3072 37.3496 88.3201 38.6639 87.5055 39.4594Z" fill="#EFEFEF"/>
<path d="M114.016 64.0866L95.8972 46.8307C95.1176 46.0882 93.8901 46.0961 93.12 46.8486L73.9645 65.5688C73.1613 66.3537 73.1617 67.6459 73.9652 68.4304L92.086 86.1197C92.8697 86.8847 94.1229 86.8771 94.8973 86.1027L114.051 66.9491C114.845 66.1546 114.83 64.8616 114.016 64.0866Z" fill="#EFEFEF"/>
</svg>
